#!OML:ASF E:\emotionWalksFemale\Project 1\Capture day 1\Session 1\Female1.ASF
:FULLY-SPECIFIED
:DEGREES
994
root 10.0022 15.2291 41.1791 2.24665 -75.0086 2.19763
lowerback 8.58531 -0.364253 -0.0961937
upperback -3.81691 -0.464882 0.582794
thorax -8.86976 -0.20613 0.748403
lowerneck -2.12433 -7.87732 -11.0791
upperneck 5.1792 -11.185 14.7606
head 3.34966 -5.44261 5.79753
rclavicle -2.47689e-014 -4.96962e-015
rhumerus -32.7778 13.0282 -82.5072
rradius 37.3096
rwrist 11.7093
rhand -2.92341 -54.0867
rfingers 7.12502
rthumb 22.7875 -82.7608
lclavicle -2.47689e-014 -4.96962e-015
lhumerus -44.0365 3.45606 72.6134
lradius 35.0231
lwrist -13.1525
lhand -6.74877 -32.2419
lfingers 7.12502
lthumb 19.1124 -3.16093
rfemur -18.2697 21.3403 19.8637
rtibia 27.2631
rfoot -20.6264 -9.68851
rtoes -52.2998
lfemur -16.0298 -21.1399 -22.0244
ltibia 31.1131
lfoot -20.9323 4.64954
ltoes -33.7634
995
root 10.0196 15.2301 41.2109 1.18192 -76.6485 3.8299
lowerback 8.29433 -0.185545 -0.440986
upperback -3.90614 -0.287106 0.353242
thorax -8.79784 -0.108239 0.668854
lowerneck -2.40937 -7.70219 -10.6693
upperneck 5.22688 -10.9471 14.7343
head 3.35589 -5.3077 5.72948
rclavicle 1.33869e-015 -2.5842e-015
rhumerus -32.7443 11.6605 -82.041
rradius 37.09
rwrist 11.7729
rhand -2.75029 -53.0275
rfingers 7.12502
rthumb 22.9536 -81.6811
lclavicle 1.33869e-015 -2.5842e-015
lhumerus -43.7026 2.56421 72.5719
lradius 35.2026
lwrist -13.0676
lhand -6.34562 -31.9515
lfingers 7.12502
lthumb 19.5001 -2.90935
rfemur -19.4597 20.7833 19.3618
rtibia 27.8609
rfoot -20.9572 -10.1412
rtoes -52.6717
lfemur -16.1039 -20.9928 -22.3754
ltibia 30.5167
lfoot -21.0616 5.69561
ltoes -32.7152
996
root 10.0337 15.2316 41.2286 0.91065 -78.2099 4.08446
lowerback 8.324 -0.0591247 -1.03871
upperback -3.70215 -0.173793 0.510545
thorax -8.59441 -0.0147591 1.15319
lowerneck -2.74011 -7.46986 -10.2221
upperneck 5.07226 -10.5831 14.4877
head 3.28084 -5.11506 5.59632
rclavicle 3.83717e-014 -5.96354e-016
rhumerus -32.6037 10.9737 -81.5629
rradius 37.0971
rwrist 12.0619
rhand -2.79091 -52.559
rfingers 7.12502
rthumb 22.9146 -81.2174
lclavicle 3.83717e-014 -5.96354e-016
lhumerus -43.2012 2.16 72.5969
lradius 35.2875
lwrist -12.9657
lhand -6.23216 -32.0283
lfingers 7.12502
lthumb 19.6092 -2.9972
rfemur -19.8812 21.5466 19.2357
rtibia 28.3051
rfoot -21.3328 -9.79197
rtoes -53.3741
lfemur -15.6386 -20.8881 -22.4956
ltibia 30.0579
lfoot -21.1317 7.19742
ltoes -34.7054
997
root 10.053 15.2454 41.2553 1.20086 -79.4302 4.04448
lowerback 8.24658 -0.0304008 -1.19717
upperback -3.68945 -0.150231 0.551402
thorax -8.53597 0.00626302 1.28154
lowerneck -2.75169 -7.19417 -9.93746
upperneck 4.80759 -10.1869 14.4421
head 3.13739 -4.92082 5.56726
rclavicle -8.58812e-015 -4.37326e-015
rhumerus -32.6837 9.90041 -81.1066
rradius 37.128
rwrist 12.1975
rhand -2.86496 -53.0043
rfingers 7.12502
rthumb 22.8436 -81.6715
lclavicle -8.58812e-015 -4.37326e-015
lhumerus -42.8156 1.54589 72.5823
lradius 35.4142
lwrist -12.6981
lhand -6.18757 -32.0039
lfingers 7.12502
lthumb 19.652 -2.97721
rfemur -20.5606 22.5933 18.8554
rtibia 28.6507
rfoot -21.439 -8.92099
rtoes -53.5952
lfemur -15.6803 -20.6468 -22.4574
ltibia 29.7015
lfoot -21.0005 8.38254
ltoes -36.6644
998
root 10.0733 15.2542 41.2876 0.830952 -80.6852 4.69142
lowerback 8.19896 -0.0101723 -1.30673
upperback -3.7192 -0.141393 0.48575
thorax -8.54075 0.0145439 1.27222
lowerneck -2.71548 -6.92356 -9.70925
upperneck 4.57741 -9.80839 14.4524
head 3.00539 -4.73699 5.56351
rclavicle -6.84565e-015 1.98785e-015
rhumerus -32.6689 9.27556 -80.7865
rradius 37.0086
rwrist 11.5561
rhand -3.23159 -53.5022
rfingers 7.12502
rthumb 22.4917 -82.2124
lclavicle -6.84565e-015 1.98785e-015
lhumerus -42.4047 1.32525 72.3056
lradius 35.4109
lwrist -12.7544
lhand -6.25934 -31.8627
lfingers 7.12502
lthumb 19.583 -2.82896
rfemur -21.2471 22.801 18.5893
rtibia 28.9948
rfoot -21.013 -9.22189
rtoes -53.0164
lfemur -15.7434 -20.3262 -22.5826
ltibia 29.4009
lfoot -21.0749 9.27689
ltoes -36.5985
999
root 10.1018 15.2598 41.3344 1.09593 -81.7224 4.93473
lowerback 7.94768 -0.0686312 -0.987833
upperback -3.8048 -0.196381 0.305819
thorax -8.48523 -0.036737 0.909811
lowerneck -2.84261 -6.7436 -9.15543
upperneck 4.47771 -9.56001 14.2792
head 2.93126 -4.60795 5.43264
rclavicle 2.67738e-014 6.95746e-016
rhumerus -32.8563 8.55624 -80.6154
rradius 36.9874
rwrist 11.0684
rhand -3.60558 -53.495
rfingers 7.12502
rthumb 22.1327 -82.2482
lclavicle 2.67738e-014 6.95746e-016
lhumerus -41.7422 1.38113 71.7426
lradius 35.1929
lwrist -13.2662
lhand -6.90492 -31.8303
lfingers 7.12502
lthumb 18.9623 -2.73456
rfemur -22.2239 21.8979 18.4126
rtibia 29.4807
rfoot -21.1021 -9.56587
rtoes -52.7119
lfemur -16.0691 -20.5466 -22.5419
ltibia 28.965
lfoot -21.1937 10.1987
ltoes -35.1557
1000
root 10.1214 15.2528 41.3595 0.577718 -83.1027 5.27659
lowerback 8.44729 0.0217304 -1.01129
upperback -3.78707 -0.0877448 0.229629
thorax -8.76132 0.017309 0.827339
lowerneck -2.86588 -6.51275 -8.86957
upperneck 4.48626 -9.2545 14.1831
head 2.88272 -4.45485 5.37527
rclavicle -4.58758e-015 4.96962e-016
rhumerus -33.316 7.79158 -80.4241
rradius 37.014
rwrist 11.2555
rhand -3.53662 -53.7228
rfingers 7.12502
rthumb 22.1989 -82.4681
lclavicle -4.58758e-015 4.96962e-016
lhumerus -41.3658 1.06123 71.4356
lradius 35.2467
lwrist -13.3854
lhand -6.47057 -31.8772
lfingers 7.12502
lthumb 19.3799 -2.8229
rfemur -22.3042 21.8898 18.4796
rtibia 29.9999
rfoot -21.0316 -9.77383
rtoes -52.6035
lfemur -15.4771 -20.6266 -22.7342
ltibia 28.5482
lfoot -21.4139 11.5938
ltoes -35.3212
1001
root 10.1431 15.2766 41.3872 -0.796563 -84.0948 6.48574
lowerback 8.68373 -0.138434 -1.2551
upperback -3.56224 -0.316166 0.40972
thorax -8.64899 -0.074636 1.19213
lowerneck -3.18931 -6.1581 -9.12146
upperneck 4.47028 -8.72273 14.1043
head 2.87655 -4.18345 5.41554
rclavicle 7.93275e-015 4.57205e-015
rhumerus -33.1418 7.49746 -79.943
rradius 36.9181
rwrist 11.6691
rhand -3.65548 -54.0213
rfingers 7.12502
rthumb 22.0848 -82.7801
lclavicle 7.93275e-015 4.57205e-015
lhumerus -40.9199 1.37744 71.3778
lradius 35.4033
lwrist -13.1279
lhand -6.54856 -31.8657
lfingers 7.12502
lthumb 19.305 -2.80389
rfemur -22.3372 23.6267 17.596
rtibia 30.6078
rfoot -22.0653 -5.43596
rtoes -47.4004
lfemur -14.9646 -20.9508 -22.9981
ltibia 28.1281
lfoot -21.5488 12.6398
ltoes -34.3656
1002
root 10.1736 15.2966 41.4319 -1.48099 -85.0125 7.89664
lowerback 8.21868 -0.260257 -1.20005
upperback -3.67691 -0.462499 0.512905
thorax -8.49637 -0.147711 1.29031
lowerneck -3.46788 -5.91219 -9.2869
upperneck 4.41737 -8.33708 13.9633
head 2.86234 -3.98695 5.41512
rclavicle 6.89534e-016 4.57205e-015
rhumerus -33.2207 7.22657 -79.3344
rradius 36.9923
rwrist 11.4751
rhand -3.78639 -53.8745
rfingers 7.12502
rthumb 21.9591 -82.6481
lclavicle 6.89534e-016 4.57205e-015
lhumerus -40.4042 1.74504 71.2481
lradius 35.4286
lwrist -12.9321
lhand -6.74778 -32.2378
lfingers 7.12502
lthumb 19.1134 -3.15696
rfemur -23.5304 23.4186 16.9448
rtibia 31.2446
rfoot -22.5081 -4.36268
rtoes -41.3194
lfemur -15.6197 -21.3745 -22.9063
ltibia 27.7113
lfoot -21.6686 13.4583
ltoes -31.5902
1003
root 10.1947 15.2937 41.4613 -3.84869 -86.1258 10.122
lowerback 8.66799 -0.196778 -1.39294
upperback -3.60872 -0.397065 0.598403
thorax -8.6862 -0.1 1.4832
lowerneck -3.56788 -5.69735 -9.18406
upperneck 4.22789 -8.00038 13.712
head 2.76834 -3.82287 5.33924
rclavicle 4.69629e-015 -1.15295e-014
rhumerus -33.4327 6.6521 -78.7367
rradius 36.8859
rwrist 11.196
rhand -3.51446 -53.4972
rfingers 7.12502
rthumb 22.2202 -82.24
lclavicle 4.69629e-015 -1.15295e-014
lhumerus -39.851 1.91916 71.0975
lradius 35.3695
lwrist -13.0177
lhand -6.6365 -32.6194
lfingers 7.12502
lthumb 19.2204 -3.54919
rfemur -23.6172 22.446 17.2819
rtibia 31.9144
rfoot -22.9514 -5.84469
rtoes -40.7079
lfemur -15.1808 -21.4123 -23.1607
ltibia 27.3579
lfoot -21.9783 14.4062
ltoes -30.3986
1004
root 10.2127 15.2969 41.4911 -7.06821 -87.115 13.229
lowerback 8.77847 -0.289251 -1.33312
upperback -3.36493 -0.515873 0.539288
thorax -8.48289 -0.165252 1.40465
lowerneck -3.94211 -5.41232 -8.59456
upperneck 4.03831 -7.56465 13.2139
head 2.68172 -3.59883 5.10438
rclavicle -8.02593e-015 1.39149e-015
rhumerus -33.2363 6.24728 -78.5139
rradius 36.5537
rwrist 11.106
rhand -3.16624 -53.5683
rfingers 7.12502
rthumb 22.5544 -82.2708
lclavicle -8.02593e-015 1.39149e-015
lhumerus -39.1014 1.94114 70.7156
lradius 35.3917
lwrist -13.0748
lhand -6.41717 -32.673
lfingers 7.12502
lthumb 19.4313 -3.6239
rfemur -23.6151 21.1096 17.6848
rtibia 32.3698
rfoot -22.9627 -6.90076
rtoes -40.8021
lfemur -14.8988 -21.455 -23.392
ltibia 27.21
lfoot -22.3021 15.5305
ltoes -30.6719
1005
root 10.228 15.2961 41.5109 -6.35783 -88.1003 12.2594
lowerback 9.01188 -0.29477 -1.08674
upperback -3.20633 -0.502313 0.421056
thorax -8.4503 -0.175822 1.13947
lowerneck -3.93061 -5.19067 -8.11984
upperneck 3.98595 -7.27346 12.9723
head 2.60511 -3.45578 4.96867
rclavicle 4.01297e-015 -1.2921e-015
rhumerus -33.4834 5.43226 -78.3804
rradius 36.2122
rwrist 11.3925
rhand -2.88894 -53.7557
rfingers 7.12502
rthumb 22.8205 -82.4257
lclavicle 4.01297e-015 -1.2921e-015
lhumerus -38.4373 1.31225 70.3621
lradius 35.4446
lwrist -12.7836
lhand -6.35541 -32.6497
lfingers 7.12502
lthumb 19.4907 -3.60663
rfemur -23.3776 19.3366 18.5398
rtibia 32.817
rfoot -23.0023 -7.29053
rtoes -40.7939
lfemur -14.536 -21.3954 -23.3867
ltibia 27.2102
lfoot -22.6044 16.7135
ltoes -31.4851
